<svg width="18" height="18" viewBox="0 0 18 18" fill="none" xmlns="http://www.w3.org/2000/svg">
<path d="M3.60897 12.7224L1.92688 1.80014H0.899992C0.6613 1.80014 0.432383 1.70532 0.263602 1.53654C0.0948203 1.36775 0 1.13884 0 0.900145C0 0.661452 0.0948203 0.432535 0.263602 0.263754C0.432383 0.0949727 0.6613 0.000152394 0.899992 0.000152394H2.68648C2.9036 -0.00385594 3.11475 0.0713261 3.28047 0.21165C3.45057 0.354692 3.56154 0.555773 3.59187 0.775946L3.88707 2.70013H10.7999V4.50011H4.16426L5.27126 11.7001H13.7303L15.0803 7.20009H16.9595L15.2621 12.8583C15.2065 13.0438 15.0926 13.2064 14.9373 13.322C14.782 13.4376 14.5935 13.5001 14.3999 13.5H4.51436C4.29109 13.5042 4.07437 13.4245 3.90687 13.2768C3.74369 13.1341 3.63757 12.9372 3.60807 12.7224H3.60897ZM7.19994 16.2C7.19994 16.6774 7.0103 17.1352 6.67274 17.4728C6.33517 17.8104 5.87734 18 5.39995 18C4.92257 18 4.46474 17.8104 4.12717 17.4728C3.78961 17.1352 3.59997 16.6774 3.59997 16.2C3.59997 15.7226 3.78961 15.2648 4.12717 14.9272C4.46474 14.5897 4.92257 14.4 5.39995 14.4C5.87734 14.4 6.33517 14.5897 6.67274 14.9272C7.0103 15.2648 7.19994 15.7226 7.19994 16.2ZM15.2999 16.2C15.2999 16.6774 15.1102 17.1352 14.7727 17.4728C14.4351 17.8104 13.9773 18 13.4999 18C13.0225 18 12.5647 17.8104 12.2271 17.4728C11.8895 17.1352 11.6999 16.6774 11.6999 16.2C11.6999 15.7226 11.8895 15.2648 12.2271 14.9272C12.5647 14.5897 13.0225 14.4 13.4999 14.4C13.9773 14.4 14.4351 14.5897 14.7727 14.9272C15.1102 15.2648 15.2999 15.7226 15.2999 16.2ZM15.2999 0.000152394C15.5386 0.000152394 15.7675 0.0949727 15.9363 0.263754C16.105 0.432535 16.1999 0.661452 16.1999 0.900145V1.80014H17.0999C17.3385 1.80014 17.5675 1.89496 17.7362 2.06374C17.905 2.23252 17.9998 2.46144 17.9998 2.70013C17.9998 2.93882 17.905 3.16774 17.7362 3.33652C17.5675 3.5053 17.3385 3.60012 17.0999 3.60012H16.1999V4.50011C16.1999 4.73881 16.105 4.96772 15.9363 5.1365C15.7675 5.30529 15.5386 5.40011 15.2999 5.40011C15.0612 5.40011 14.8323 5.30529 14.6635 5.1365C14.4947 4.96772 14.3999 4.73881 14.3999 4.50011V3.60012H13.4999C13.2612 3.60012 13.0323 3.5053 12.8635 3.33652C12.6947 3.16774 12.5999 2.93882 12.5999 2.70013C12.5999 2.46144 12.6947 2.23252 12.8635 2.06374C13.0323 1.89496 13.2612 1.80014 13.4999 1.80014H14.3999V0.900145C14.3999 0.661452 14.4947 0.432535 14.6635 0.263754C14.8323 0.0949727 15.0612 0.000152394 15.2999 0.000152394Z" fill="white"/>
</svg>
