<svg width="28" height="28" viewBox="0 0 28 28" fill="none" xmlns="http://www.w3.org/2000/svg">
<path d="M3.01416 2.80019L5.61393 18.4045C5.66141 18.7313 5.82369 19.0306 6.07173 19.2487C6.33337 19.4808 6.67262 19.6062 7.02232 19.6001H22.3997C22.6937 19.6001 22.9802 19.5077 23.2187 19.3358C23.4571 19.1639 23.6354 18.9214 23.7283 18.6425L27.9283 6.04257C27.9984 5.83211 28.0174 5.608 27.9839 5.38871C27.9504 5.16942 27.8653 4.96124 27.7355 4.78131C27.6058 4.60138 27.4351 4.45486 27.2377 4.35383C27.0402 4.25279 26.8215 4.20013 26.5997 4.20018H6.08573L5.58593 1.19021C5.53462 0.846302 5.3563 0.534111 5.08614 0.315214C4.83009 0.106013 4.50814 -0.00560196 4.17755 0.00021652H1.39998C1.02868 0.00021652 0.672593 0.147715 0.410046 0.410264C0.147498 0.672813 0 1.02891 0 1.40021C0 1.77151 0.147498 2.1276 0.410046 2.39015C0.672593 2.6527 1.02868 2.80019 1.39998 2.80019H3.01416ZM8.1857 16.8001L6.55192 7.00016H24.6579L21.3903 16.8001H8.1857ZM11.1999 25.2C11.1999 25.9426 10.9049 26.6548 10.3798 27.1799C9.85468 27.705 9.1425 28 8.3999 28C7.6573 28 6.94512 27.705 6.42002 27.1799C5.89493 26.6548 5.59993 25.9426 5.59993 25.2C5.59993 24.4574 5.89493 23.7452 6.42002 23.2201C6.94512 22.695 7.6573 22.4 8.3999 22.4C9.1425 22.4 9.85468 22.695 10.3798 23.2201C10.9049 23.7452 11.1999 24.4574 11.1999 25.2ZM23.7997 25.2C23.7997 25.9426 23.5047 26.6548 22.9796 27.1799C22.4545 27.705 21.7423 28 20.9997 28C20.2572 28 19.545 27.705 19.0199 27.1799C18.4948 26.6548 18.1998 25.9426 18.1998 25.2C18.1998 24.4574 18.4948 23.7452 19.0199 23.2201C19.545 22.695 20.2572 22.4 20.9997 22.4C21.7423 22.4 22.4545 22.695 22.9796 23.2201C23.5047 23.7452 23.7997 24.4574 23.7997 25.2Z" fill="#0D0D0D"/>
</svg>
