<svg width="14" height="14" viewBox="0 0 14 14" fill="none" xmlns="http://www.w3.org/2000/svg">
<path d="M0.292534 0.305025C0.4799 0.117716 0.733989 0.012491 0.998925 0.012491C1.26386 0.012491 1.51795 0.117716 1.70532 0.305025L6.99375 5.59346L12.2822 0.305025C12.3744 0.209597 12.4846 0.133481 12.6065 0.0811169C12.7284 0.0287531 12.8595 0.00119055 12.9922 3.77245e-05C13.1248 -0.0011151 13.2564 0.0241646 13.3792 0.0744021C13.502 0.12464 13.6135 0.198829 13.7074 0.292641C13.8012 0.386452 13.8754 0.498008 13.9256 0.620799C13.9758 0.743589 14.0011 0.875155 14 1.00782C13.9988 1.14049 13.9712 1.27159 13.9189 1.39349C13.8665 1.51539 13.7904 1.62564 13.695 1.71781L8.40654 7.00625L13.695 12.2947C13.877 12.4831 13.9777 12.7355 13.9754 12.9975C13.9731 13.2594 13.8681 13.51 13.6828 13.6953C13.4976 13.8805 13.247 13.9856 12.985 13.9879C12.723 13.9902 12.4706 13.8895 12.2822 13.7075L6.99375 8.41903L1.70532 13.7075C1.51688 13.8895 1.26449 13.9902 1.00252 13.9879C0.74055 13.9856 0.489953 13.8805 0.304705 13.6953C0.119457 13.51 0.0143782 13.2594 0.0121017 12.9975C0.00982525 12.7355 0.110533 12.4831 0.292534 12.2947L5.58097 7.00625L0.292534 1.71781C0.105225 1.53044 0 1.27635 0 1.01142C0 0.74648 0.105225 0.492391 0.292534 0.305025Z" fill="#0D0D0D"/>
</svg>
