<svg width="22" height="22" viewBox="0 0 22 22" fill="none" xmlns="http://www.w3.org/2000/svg">
<path d="M1.83333 8.24998V6.41665C1.83333 3.66665 3.66666 1.83331 6.41666 1.83331H15.5833C18.3333 1.83331 20.1667 3.66665 20.1667 6.41665V8.24998M1.83333 13.75V15.5833C1.83333 18.3333 3.66666 20.1666 6.41666 20.1666H15.5833C18.3333 20.1666 20.1667 18.3333 20.1667 15.5833V13.75" stroke="black" stroke-width="1.5" stroke-miterlimit="10" stroke-linecap="round" stroke-linejoin="round"/>
<path d="M6.14166 8.48834L11 11.3025L15.8217 8.50668M11 16.2892V11.2933" stroke="black" stroke-width="1.5" stroke-linecap="round" stroke-linejoin="round"/>
<path d="M9.86333 5.76581L6.93 7.39747C6.27 7.76414 5.72 8.68997 5.72 9.45081V12.5583C5.72 13.3191 6.26083 14.245 6.93 14.6116L9.86333 16.2433C10.4867 16.5916 11.5133 16.5916 12.1458 16.2433L15.0792 14.6116C15.7392 14.245 16.2892 13.3191 16.2892 12.5583V9.45081C16.2892 8.68997 15.7483 7.76414 15.0792 7.39747L12.1458 5.76581C11.5133 5.40831 10.4867 5.40831 9.86333 5.76581Z" stroke="black" stroke-width="1.5" stroke-linecap="round" stroke-linejoin="round"/>
</svg>
